Coordinates
version=1
nRows=20
nColumns=30
inDegrees=yes

Units are S.I. units (second, meters, Newtons, ...)
Angles are in degrees.

endheader
time	floatyaw	floatroll	floatpitch	floatx	floaty	floatz	pro_sup_l	deviation_l	flexion_l	cmc_flexion_l	cmc_abduction_l	mp_flexion_l	ip_flexion_l	2mcp_flexion_l	2mcp_abduction_l	2pm_flexion_l	2md_flexion_l	3mcp_flexion_l	3mcp_abduction_l	3pm_flexion_l	3md_flexion_l	4mcp_flexion_l	4mcp_abduction_l	4pm_flexion_l	4md_flexion_l	5mcp_flexion_l	5mcp_abduction_l	5pm_flexion_l	5md_flexion_l
-0.995000	0.749225	-1.746491	98.520729	-0.104910	-0.193342	-0.025174	88.405816	0.726202	-1.378638	17.954287	3.337771	-21.911458	-35.072285	36.542584	7.938215	46.498831	32.560782	22.571515	4.766303	46.084023	31.147278	13.214121	-4.585092	59.772964	40.771336	9.812983	-8.648258	58.656173	40.684688
-0.985000	0.749225	-1.746491	98.520729	-0.104904	-0.193336	-0.025169	88.417684	0.730132	-1.382066	17.937921	3.325917	-21.916135	-35.070975	36.555801	7.934514	46.509563	32.566901	22.580174	4.767913	46.101694	31.156468	13.239928	-4.591449	59.784761	40.776743	9.856858	-8.637634	58.632966	40.668733
-0.975000	0.749225	-1.746491	98.520729	-0.104895	-0.193332	-0.025166	88.439996	0.741205	-1.392235	17.927965	3.303338	-21.922503	-35.073217	36.571710	7.931296	46.522782	32.573501	22.598041	4.768548	46.118245	31.160511	13.273313	-4.597688	59.791690	40.777862	9.905030	-8.622294	58.612345	40.653392
-0.965000	0.749225	-1.746491	98.520729	-0.104885	-0.193329	-0.025167	88.471105	0.759708	-1.408205	17.924748	3.271548	-21.930463	-35.080327	36.589805	7.927111	46.539434	32.580884	22.622310	4.768516	46.131621	31.159523	13.310713	-4.601811	59.790617	40.773753	9.953008	-8.604056	58.600141	40.641457
-0.955000	0.749225	-1.746491	98.520729	-0.104876	-0.193328	-0.025171	88.506406	0.783609	-1.427064	17.927291	3.234267	-21.939598	-35.092283	36.608215	7.920975	46.558870	32.588908	22.647387	4.768409	46.140877	31.155637	13.346917	-4.603379	59.783522	40.766583	9.996184	-8.585269	58.599362	40.634632
-0.945000	0.749225	-1.746491	98.520729	-0.104866	-0.193329	-0.025178	88.539541	0.809162	-1.445297	17.933731	3.196079	-21.949264	-35.107746	36.624702	7.913276	46.579449	32.597176	22.667735	4.768746	46.147426	31.152447	13.377760	-4.603943	59.776722	40.760451	10.031190	-8.567693	58.609655	40.632979
-0.935000	0.749225	-1.746491	98.520729	-0.104858	-0.193333	-0.025187	88.564490	0.832247	-1.460238	17.941961	3.161136	-21.958603	-35.124522	36.637657	7.905948	46.599963	32.605550	22.680441	4.769686	46.155162	31.153743	13.402134	-4.606253	59.777576	40.759049	10.056778	-8.551841	58.628201	40.635094
-0.925000	0.749225	-1.746491	98.520729	-0.104852	-0.193339	-0.025196	88.577685	0.849907	-1.470828	17.950183	3.131942	-21.966704	-35.140299	36.646341	7.901609	46.620683	32.614483	22.686027	4.770925	46.168837	31.161948	13.421807	-4.612609	59.790794	40.763771	10.073984	-8.537241	58.651256	40.638796
-0.915000	0.749225	-1.746491	98.520729	-0.104846	-0.193347	-0.025205	88.579252	0.861396	-1.477470	17.957112	3.108507	-21.972949	-35.153320	36.650523	7.902075	46.643178	32.624834	22.687286	4.771863	46.191452	31.177023	13.439342	-4.623382	59.816514	40.773409	10.085534	-8.523367	58.675507	40.641962
-0.905000	0.749225	-1.746491	98.520729	-0.104841	-0.193354	-0.025215	88.572845	0.868283	-1.481341	17.961873	3.088503	-21.977273	-35.162700	36.650319	7.907177	46.669129	32.637276	22.687199	4.771950	46.222349	31.196497	13.455913	-4.636609	59.850857	40.785309	10.094780	-8.510458	58.698726	40.643167
-0.895000	0.749225	-1.746491	98.520729	-0.104836	-0.193358	-0.025224	88.564202	0.873610	-1.483815	17.963856	3.068801	-21.980056	-35.168354	36.646633	7.914585	46.699102	32.651750	22.687389	4.771035	46.257327	31.216666	13.470636	-4.648878	59.888176	40.796972	10.104677	-8.499628	58.719741	40.641938
-0.885000	0.749225	-1.746491	98.520729	-0.104832	-0.193359	-0.025234	88.559105	0.880619	-1.486283	17.962764	3.047521	-21.981720	-35.170752	36.641705	7.920702	46.732004	32.667296	22.687949	4.769477	46.290668	31.234256	13.481600	-4.656892	59.923474	40.807024	10.117194	-8.492152	58.738145	40.638695
-0.875000	0.749225	-1.746491	98.520729	-0.104828	-0.193356	-0.025243	88.561522	0.891629	-1.490158	17.958815	3.025030	-21.982440	-35.170740	36.638944	7.922081	46.765289	32.682270	22.688443	4.767933	46.317684	31.247550	13.487522	-4.658879	59.953773	40.815221	10.133051	-8.488410	58.754101	40.634483
-0.865000	0.749225	-1.746491	98.520729	-0.104825	-0.193352	-0.025251	88.572442	0.907410	-1.496629	17.952842	3.003207	-21.982292	-35.169477	36.641770	7.916646	46.795653	32.694787	22.689133	4.766920	46.336376	31.256525	13.488781	-4.655190	59.978186	40.821858	10.151482	-8.487121	58.768266	40.630588
-0.855000	0.749225	-1.746491	98.520729	-0.104823	-0.193348	-0.025259	88.589631	0.927026	-1.506057	17.946005	2.983802	-21.981677	-35.168299	36.651972	7.904189	46.820002	32.703304	22.691484	4.766392	46.347663	31.262313	13.487273	-4.647905	59.997162	40.827217	10.170026	-8.485400	58.781523	40.628040
-0.845000	0.749225	-1.746491	98.520729	-0.104822	-0.193345	-0.025266	88.608413	0.948125	-1.517430	17.939147	2.967268	-21.981624	-35.168394	36.668527	7.886127	46.836470	32.707183	22.697541	4.765584	46.354515	31.266538	13.485391	-4.639738	60.011721	40.831406	10.184838	-8.479756	58.794350	40.627104
-0.835000	0.749225	-1.746491	98.520729	-0.104823	-0.193343	-0.025272	88.623341	0.967665	-1.528434	17.932178	2.952726	-21.983643	-35.170430	36.687669	7.864791	46.845050	32.706982	22.708558	4.763267	46.360541	31.270832	13.484899	-4.632833	60.023094	40.834539	10.191959	-8.467648	58.806094	40.626944
-0.825000	0.749225	-1.746491	98.520729	-0.104826	-0.193339	-0.025276	88.630196	0.982934	-1.536370	17.923971	2.938830	-21.989135	-35.174374	36.704430	7.842665	46.847430	32.704211	22.723765	4.758412	46.368587	31.276460	13.486410	-4.628078	60.032658	40.836884	10.189362	-8.448819	58.814743	40.625736
-0.815000	0.749225	-1.746491	98.520729	-0.104833	-0.193331	-0.025279	88.627362	0.992441	-1.539470	17.912955	2.924928	-21.998590	-35.179598	36.715063	7.821768	46.846113	32.700621	22.740110	4.750997	46.379922	31.284075	13.489641	-4.625181	60.041661	40.838733	10.178770	-8.425753	58.817600	40.621316
-0.805000	0.749225	-1.746491	98.520729	-0.104843	-0.193320	-0.025281	88.615985	0.996318	-1.537859	17.898021	2.911893	-22.011017	-35.185124	36.719092	7.803278	46.843396	32.697436	22.753293	4.742497	46.394356	31.293692	13.494148	-4.623306	60.050602	40.840042	10.166045	-8.402965	58.812697	40.612161
